<?xml version="1.0" encoding="UTF-8"?><svg width="100" height="200" viewBox="0 0 100 200" xmlns="http://www.w3.org/2000/svg">  <defs>    <linearGradient id="bodyGradient" x1="0%" y1="0%" x2="100%" y2="100%">      <stop offset="0%" stop-color="#4477ee" />      <stop offset="100%" stop-color="#2244aa" />    </linearGradient>    <linearGradient id="faceGradient" x1="0%" y1="0%" x2="100%" y2="100%">      <stop offset="0%" stop-color="#ffddbb" />      <stop offset="100%" stop-color="#ffbb99" />    </linearGradient>    <filter id="glow" x="-20%" y="-20%" width="140%" height="140%">      <feGaussianBlur stdDeviation="2" result="blur" />      <feComposite in="SourceGraphic" in2="blur" operator="over" />    </filter>    <filter id="shadow" x="-20%" y="-20%" width="140%" height="140%">      <feDropShadow dx="2" dy="2" stdDeviation="2" flood-color="#000" flood-opacity="0.3" />    </filter>  </defs>    <g filter="url(#shadow)">    <!-- 髪の毛 -->    <path d="M20 40 Q35 10 50 25 Q65 10 80 40 Q75 55 75 60 Q90 40 80 30 Q75 10 50 15 Q25 10 20 30 Q10 40 25 60 Q25 55 20 40Z" fill="#402010" />        <!-- 体（鎧） -->    <path d="M35 80 L35 150 Q40 155 50 155 Q60 155 65 150 L65 80 Z" fill="url(#bodyGradient)" />    <path d="M30 80 L35 85 L35 110 L30 120 Z" fill="#3355dd" />    <path d="M70 80 L65 85 L65 110 L70 120 Z" fill="#3355dd" />        <!-- 肩当て -->    <ellipse cx="30" cy="85" rx="10" ry="7" fill="#2233aa" />    <ellipse cx="70" cy="85" rx="10" ry="7" fill="#2233aa" />        <!-- 顔 -->    <circle cx="50" cy="50" r="25" fill="url(#faceGradient)" />        <!-- 目 -->    <ellipse cx="40" cy="45" rx="4" ry="5" fill="#000" />    <ellipse cx="60" cy="45" rx="4" ry="5" fill="#000" />    <circle cx="41" cy="43" r="1.5" fill="#fff" />    <circle cx="61" cy="43" r="1.5" fill="#fff" />        <!-- 眉毛 -->    <path d="M34 38 Q40 35 44 37" stroke="#402010" stroke-width="1.5" fill="none" />    <path d="M56 37 Q60 35 66 38" stroke="#402010" stroke-width="1.5" fill="none" />        <!-- 口 -->    <path d="M40 60 Q50 65 60 60" stroke="#cc6666" stroke-width="2" fill="none" />        <!-- 腕 -->    <path d="M30 85 L15 95 Q10 105 15 110 L20 110 Q25 105 30 105 Z" fill="#ffccaa" />    <path d="M70 85 L85 95 Q90 105 85 110 L80 110 Q75 105 70 105 Z" fill="#ffccaa" />        <!-- 手（グローブ） -->    <circle cx="15" cy="110" r="5" fill="#fff" filter="url(#glow)" />    <circle cx="85" cy="110" r="5" fill="#fff" filter="url(#glow)" />        <!-- 足 -->    <path d="M35 150 L33 180 L43 180 L45 150 Z" fill="#663300" />    <path d="M55 150 L53 180 L63 180 L65 150 Z" fill="#663300" />        <!-- 靴 -->    <path d="M33 175 L30 180 L43 180 L43 175 Z" fill="#222" />    <path d="M53 175 L50 180 L63 180 L63 175 Z" fill="#222" />        <!-- ベルト -->    <rect x="35" y="120" width="30" height="5" fill="#cc9900" />    <circle cx="50" cy="122.5" r="2" fill="#ffcc00" />  </g></svg> 