<?xml version="1.0" encoding="UTF-8"?><svg width="100" height="100" viewBox="0 0 100 100" xmlns="http://www.w3.org/2000/svg">  <defs>    <linearGradient id="slimeGradient" x1="0%" y1="0%" x2="100%" y2="100%">      <stop offset="0%" stop-color="#66ccff" />      <stop offset="50%" stop-color="#88ddff" />      <stop offset="100%" stop-color="#aaeeff" />    </linearGradient>    <radialGradient id="highlightGradient" cx="40%" cy="40%" r="50%" fx="40%" fy="40%">      <stop offset="0%" stop-color="#ffffff" stop-opacity="0.7" />      <stop offset="100%" stop-color="#ffffff" stop-opacity="0" />    </radialGradient>    <filter id="slimeShadow" x="-20%" y="-20%" width="140%" height="140%">      <feDropShadow dx="0" dy="3" stdDeviation="3" flood-color="#000" flood-opacity="0.3" />    </filter>    <filter id="slimeGlow" x="-30%" y="-30%" width="160%" height="160%">      <feGaussianBlur stdDeviation="3" result="blur" />      <feComposite in="SourceGraphic" in2="blur" operator="over" />    </filter>  </defs>    <g>    <!-- スライムの本体 -->    <path d="M10 65 Q10 35 50 30 Q90 35 90 65 Q90 85 50 95 Q10 85 10 65 Z" fill="url(#slimeGradient)" filter="url(#slimeShadow)" />        <!-- ハイライト -->    <ellipse cx="40" cy="45" rx="25" ry="15" fill="url(#highlightGradient)" />        <!-- スライム内部の表現 -->    <path d="M20 63 Q30 55 45 60 Q55 65 75 58 Q60 75 35 70 Q25 67 20 63 Z" fill="#66ccff" fill-opacity="0.5" />        <!-- 目 -->    <g>      <circle cx="35" cy="55" r="5" fill="#fff" />      <circle cx="35" cy="55" r="3" fill="#000" />      <circle cx="34" cy="54" r="1" fill="#fff" />            <circle cx="65" cy="55" r="5" fill="#fff" />      <circle cx="65" cy="55" r="3" fill="#000" />      <circle cx="64" cy="54" r="1" fill="#fff" />    </g>        <!-- 口 -->    <path d="M40 70 Q50 80 60 70" stroke="#006699" stroke-width="2.5" fill="none" />        <!-- 粘液のしずく -->    <path d="M30 85 Q30 95 35 95 Q40 95 40 85 Z" fill="#aaeeff" fill-opacity="0.7" />    <circle cx="85" cy="65" r="5" fill="#aaeeff" fill-opacity="0.7" />  </g></svg> 