<?xml version="1.0" encoding="UTF-8"?><svg width="60" height="120" viewBox="0 0 60 120" xmlns="http://www.w3.org/2000/svg">  <defs>    <linearGradient id="bladeGradient" x1="0%" y1="0%" x2="100%" y2="100%">      <stop offset="0%" stop-color="#e0e0e0" />      <stop offset="50%" stop-color="#f8f8f8" />      <stop offset="100%" stop-color="#c0c0c0" />    </linearGradient>    <linearGradient id="handleGradient" x1="0%" y1="0%" x2="100%" y2="0%">      <stop offset="0%" stop-color="#995500" />      <stop offset="50%" stop-color="#aa6600" />      <stop offset="100%" stop-color="#884400" />    </linearGradient>    <linearGradient id="guardGradient" x1="0%" y1="0%" x2="100%" y2="100%">      <stop offset="0%" stop-color="#ffdd44" />      <stop offset="50%" stop-color="#ffcc00" />      <stop offset="100%" stop-color="#ddaa00" />    </linearGradient>    <filter id="glow" x="-20%" y="-20%" width="140%" height="140%">      <feGaussianBlur stdDeviation="1.5" result="blur" />      <feComposite in="SourceGraphic" in2="blur" operator="over" />    </filter>    <filter id="shadow" x="-20%" y="-20%" width="140%" height="140%">      <feDropShadow dx="1" dy="1" stdDeviation="1" flood-color="#000" flood-opacity="0.5" />    </filter>  </defs>    <g filter="url(#shadow)">    <!-- 剣の刃 -->    <path d="M30 5 L13 80 L47 80 Z" fill="url(#bladeGradient)" />        <!-- 刃の輪郭 -->    <path d="M30 5 L13 80 L47 80 Z" fill="none" stroke="#888" stroke-width="0.5" />        <!-- 中央の刃筋 -->    <path d="M30 5 L30 80" stroke="#aaa" stroke-width="1" />        <!-- 光の反射 -->    <path d="M30 5 L23 80 L37 80 Z" fill="#ffffff" fill-opacity="0.4" filter="url(#glow)" />    <path d="M27 10 L25 75" stroke="#ffffff" stroke-width="1" stroke-opacity="0.7" />        <!-- 剣のガード -->    <path d="M5 80 L10 75 L50 75 L55 80 L55 85 L50 90 L10 90 L5 85 Z" fill="url(#guardGradient)" />    <path d="M5 80 L10 75 L50 75 L55 80 L55 85 L50 90 L10 90 L5 85 Z" fill="none" stroke="#aa8800" stroke-width="0.5" />        <!-- ガードの装飾 -->    <circle cx="30" cy="82.5" r="3" fill="#ffee66" stroke="#aa8800" stroke-width="0.5" />        <!-- 剣の柄 -->    <path d="M25 90 L25 110 Q27 115 30 115 Q33 115 35 110 L35 90 Z" fill="url(#handleGradient)" />    <path d="M25 90 L25 110 Q27 115 30 115 Q33 115 35 110 L35 90 Z" fill="none" stroke="#663300" stroke-width="0.5" />        <!-- 柄の装飾 -->    <path d="M25 95 L35 95 M25 100 L35 100 M25 105 L35 105" stroke="#553300" stroke-width="1" />        <!-- 柄の端 -->    <ellipse cx="30" cy="115" rx="5" ry="3" fill="#aa7700" stroke="#663300" stroke-width="0.5" />  </g></svg> 