<?xml version="1.0" encoding="UTF-8"?>
<svg width="800" height="400" viewBox="0 0 800 400" xmlns="http://www.w3.org/2000/svg">
  <g>
    <!-- 背景 -->
    <rect x="0" y="0" width="800" height="400" fill="#220022" />
    
    <!-- 月 -->
    <circle cx="650" cy="80" r="50" fill="#ffccaa" />
    
    <!-- 城のシルエット -->
    <path d="M250 300 L250 150 L270 150 L270 130 L290 130 L290 150 L310 150 L310 100 L330 100 L330 150 L350 150 L350 130 L370 130 L370 150 L390 150 L390 80 L420 50 L450 80 L450 150 L470 150 L470 130 L490 130 L490 150 L510 150 L510 100 L530 100 L530 150 L550 150 L550 200 L570 200 L570 300 Z" fill="#330033" />
    
    <!-- 窓 -->
    <rect x="280" y="170" width="20" height="30" fill="#ffcc00" />
    <rect x="480" y="170" width="20" height="30" fill="#ffcc00" />
    <rect x="380" y="200" width="20" height="30" fill="#ffcc00" />
    <rect x="420" y="170" width="20" height="30" fill="#ffcc00" />
    
    <!-- 地面 -->
    <rect x="0" y="300" width="800" height="100" fill="#330033" />
  </g>
</svg> 