<?xml version="1.0" encoding="UTF-8"?>
<svg width="800" height="400" viewBox="0 0 800 400" xmlns="http://www.w3.org/2000/svg">
  <g>
    <!-- 背景 -->
    <rect x="0" y="0" width="800" height="400" fill="#334455" />
    
    <!-- 洞窟の入口 -->
    <ellipse cx="400" cy="200" rx="150" ry="200" fill="#111122" />
    
    <!-- 岩 -->
    <path d="M100 300 L150 250 L200 310 L250 280 L300 310 L350 290 L400 300 L450 280 L500 310 L550 290 L600 310 L650 280 L700 300 L750 280 L800 300 L800 400 L0 400 L0 300 Z" fill="#777777" />
    
    <!-- 鍾乳石 -->
    <path d="M340 0 L360 100 L380 0" fill="#666666" />
    <path d="M420 0 L440 80 L460 0" fill="#666666" />
    <path d="M380 0 L400 120 L420 0" fill="#666666" />
  </g>
</svg> 