<?xml version="1.0" encoding="UTF-8"?>
<svg width="800" height="400" viewBox="0 0 800 400" xmlns="http://www.w3.org/2000/svg">
  <g>
    <!-- 背景 -->
    <rect x="0" y="0" width="800" height="400" fill="#111122" />
    
    <!-- 遠くの鍾乳石 -->
    <path d="M100 0 L120 100 L140 0" fill="#333344" />
    <path d="M180 0 L200 120 L220 0" fill="#333344" />
    <path d="M260 0 L280 80 L300 0" fill="#333344" />
    <path d="M500 0 L520 90 L540 0" fill="#333344" />
    <path d="M580 0 L600 110 L620 0" fill="#333344" />
    <path d="M660 0 L680 70 L700 0" fill="#333344" />
    
    <!-- 地面の鍾乳石 -->
    <path d="M140 400 L160 300 L180 400" fill="#333344" />
    <path d="M220 400 L240 320 L260 400" fill="#333344" />
    <path d="M300 400 L320 280 L340 400" fill="#333344" />
    <path d="M460 400 L480 310 L500 400" fill="#333344" />
    <path d="M540 400 L560 330 L580 400" fill="#333344" />
    <path d="M620 400 L640 290 L660 400" fill="#333344" />
    
    <!-- 地面 -->
    <path d="M0 350 L50 340 L100 350 L150 330 L200 360 L250 340 L300 350 L350 330 L400 360 L450 340 L500 350 L550 330 L600 360 L650 340 L700 350 L750 340 L800 350 L800 400 L0 400 Z" fill="#222233" />
    
    <!-- 洞窟内の水たまり -->
    <ellipse cx="400" cy="360" rx="200" ry="20" fill="#1a2f55" />
  </g>
</svg> 