<svg xmlns="http://www.w3.org/2000/svg" width="800" height="250" viewBox="0 0 800 250">
  <!-- 空 -->
  <rect width="800" height="250" fill="#87CEEB"/>
  
  <!-- 遠景の山 -->
  <polygon points="0,120 100,80 200,110 300,70 400,100 500,60 600,90 700,70 800,120 800,250 0,250" fill="#8BB98C"/>
  
  <!-- 地面 -->
  <rect x="0" y="200" width="800" height="50" fill="#2E8B57"/>
  
  <!-- 木1 -->
  <rect x="100" y="150" width="20" height="50" fill="#8B4513"/>
  <circle cx="110" cy="120" r="30" fill="#228B22"/>
  
  <!-- 木2 -->
  <rect x="300" y="160" width="15" height="40" fill="#8B4513"/>
  <circle cx="307" cy="135" r="25" fill="#228B22"/>
  
  <!-- 木3 -->
  <rect x="500" y="140" width="25" height="60" fill="#8B4513"/>
  <circle cx="512" cy="110" r="35" fill="#228B22"/>
  
  <!-- 木4 -->
  <rect x="680" y="155" width="18" height="45" fill="#8B4513"/>
  <circle cx="689" cy="130" r="28" fill="#228B22"/>
  
  <!-- 草 -->
  <rect x="0" y="195" width="800" height="5" fill="#3CB371"/>
  
  <!-- 草むら1 -->
  <path d="M50,200 C60,190 70,198 80,200" fill="none" stroke="#3CB371" stroke-width="2"/>
  <path d="M150,200 C160,185 170,195 180,200" fill="none" stroke="#3CB371" stroke-width="2"/>
  <path d="M250,200 C260,188 270,193 280,200" fill="none" stroke="#3CB371" stroke-width="2"/>
  <path d="M350,200 C360,190 370,198 380,200" fill="none" stroke="#3CB371" stroke-width="2"/>
  <path d="M450,200 C460,185 470,195 480,200" fill="none" stroke="#3CB371" stroke-width="2"/>
  <path d="M550,200 C560,188 570,193 580,200" fill="none" stroke="#3CB371" stroke-width="2"/>
  <path d="M650,200 C660,190 670,198 680,200" fill="none" stroke="#3CB371" stroke-width="2"/>
  <path d="M750,200 C760,185 770,195 780,200" fill="none" stroke="#3CB371" stroke-width="2"/>
</svg> 